<svg width="512" height="200" viewBox="0 0 512 200" fill="none" xmlns="http://www.w3.org/2000/svg">
<path d="M18 184V17H81.0102C98.0899 17 112.9 20.3446 125.44 27.0338C137.981 33.7231 147.636 43.334 154.407 55.8667C161.177 68.3994 164.562 83.2772 164.562 100.5C164.562 117.723 161.177 132.601 154.407 145.133C147.713 157.666 138.096 167.277 125.556 173.966C113.092 180.655 98.3976 184 81.4718 184H18ZM79.8562 146.633C88.8576 146.633 96.2819 145.21 102.129 142.365C108.053 139.444 112.554 134.638 115.631 127.949C118.709 121.183 120.247 112.033 120.247 100.5C120.247 88.9669 118.67 79.8172 115.516 73.0511C112.438 66.285 107.861 61.4795 101.783 58.6347C95.7818 55.7898 88.0883 54.3674 78.7021 54.3674H61.8533V146.633H79.8562Z" fill="#333333"/>
<path d="M186.027 17H305.354V52.5221H229.88V82.7389H299.122V118.261H229.88V148.478H305.123V184H186.027V17Z" fill="#333333"/>
<path d="M406.909 136.022H408.294L443.377 17H493L437.606 184H377.828L322.203 17H371.827L406.909 136.022Z" fill="#935DB4"/>
</svg>
